<svg fill="current" width="24" height="24" viewBox="0 0 24 24" fill="none" xmlns="http://www.w3.org/2000/svg">
<path d="M9.70223 21.9424H14.2975C13.9306 22.8695 13.0324 23.5 11.9995 23.5C10.967 23.5 10.0691 22.8695 9.70223 21.9424Z" stroke="#C3CED2"/>
<path d="M21.2928 17.7784V19.0427H2.70709V17.7784C2.85784 17.6411 3.0139 17.5112 3.1801 17.3732L3.20832 17.3497C3.6942 16.9464 4.25833 16.4782 4.66812 15.6906C5.08418 14.8909 5.30753 13.837 5.30753 12.2883V9.93548C5.30753 6.82627 7.49547 4.0941 10.5173 3.41027L11.4586 3.19726L11.0197 2.33773C10.9365 2.17471 10.8986 2.01332 10.8986 1.85119C10.8986 1.24472 11.3933 0.75 11.9998 0.75C12.6067 0.75 13.1014 1.24487 13.1014 1.85119C13.1014 2.01293 13.0635 2.17452 12.9801 2.33806L12.5419 3.19736L13.4827 3.41027C16.5044 4.0941 18.6925 6.82628 18.6925 9.93548V12.2883C18.6925 13.837 18.9158 14.8909 19.3319 15.6906C19.7416 16.4781 20.3057 16.9464 20.7916 17.3496L20.8199 17.3731C20.8199 17.3732 20.8199 17.3732 20.8199 17.3732C20.9861 17.5112 21.1421 17.6411 21.2928 17.7784Z" stroke="#C3CED2" stroke-width="1.5"/>
</svg>
