<svg fill="current" width="20" height="21" viewBox="0 0 20 21" xmlns="http://www.w3.org/2000/svg">
<path fill-rule="evenodd" clip-rule="evenodd" d="M10 0L20 4.91333V16.0866L10 21L0 16.0866V4.91333L10 0ZM1.81818 6.92993V14.9633L9.09091 18.5366V10.5032L1.81818 6.92993ZM10.9091 10.5032V18.5366L18.1818 14.9633V6.92993L15.4545 8.26995V11.8559L13.6364 12.7599V9.16331L10.9091 10.5032ZM17.0388 5.47496L14.6699 6.63882C14.6181 6.59623 14.5605 6.55877 14.4977 6.52756L7.69879 3.14727L10 2.0166L17.0388 5.47496ZM5.65396 4.15195L12.651 7.63078L10 8.93334L2.96126 5.47496L5.65396 4.15195Z" fill="currentColor"/>
</svg>
