<svg fill="current" width="21" height="19" viewBox="0 0 21 19" xmlns="http://www.w3.org/2000/svg">
<path d="M19.8595 4.12403L20.6037 4.21706V4.21705L19.8595 4.12403ZM19.1095 10.124L19.8537 10.2171L19.8537 10.217L19.1095 10.124ZM1 0.25C0.585786 0.25 0.25 0.585786 0.25 1C0.25 1.41421 0.585786 1.75 1 1.75V0.25ZM4.19924 1.74003L3.47503 1.93501L3.47503 1.93501L4.19924 1.74003ZM7.30076 13.26L6.57655 13.455L6.57655 13.455L7.30076 13.26ZM18 14.75C18.4142 14.75 18.75 14.4142 18.75 14C18.75 13.5858 18.4142 13.25 18 13.25V14.75ZM4.33331 3.75H18.8672V2.25H4.33331V3.75ZM18.8672 3.75C19.0176 3.75 19.1339 3.88181 19.1153 4.03101L20.6037 4.21705C20.7343 3.17255 19.9198 2.25 18.8672 2.25V3.75ZM19.1153 4.031L18.3653 10.031L19.8537 10.217L20.6037 4.21706L19.1153 4.031ZM18.3653 10.0309C18.3496 10.1562 18.2432 10.25 18.1172 10.25V11.75C18.9998 11.75 19.7442 11.0928 19.8537 10.2171L18.3653 10.0309ZM1 1.75H3.23362V0.25H1V1.75ZM3.23362 1.75C3.34666 1.75 3.44564 1.82586 3.47503 1.93501L4.92345 1.54505C4.71774 0.780964 4.0249 0.25 3.23362 0.25V1.75ZM3.47503 1.93501L6.57655 13.455L8.02497 13.065L4.92345 1.54505L3.47503 1.93501ZM6.57655 13.455C6.78227 14.2191 7.47512 14.75 8.26638 14.75V13.25C8.15332 13.25 8.05435 13.1741 8.02497 13.065L6.57655 13.455ZM8.26638 14.75H18V13.25H8.26638V14.75ZM9.25 17C9.25 17.1381 9.13807 17.25 9 17.25V18.75C9.9665 18.75 10.75 17.9665 10.75 17H9.25ZM9 17.25C8.86193 17.25 8.75 17.1381 8.75 17H7.25C7.25 17.9665 8.0335 18.75 9 18.75V17.25ZM8.75 17C8.75 16.8619 8.86193 16.75 9 16.75V15.25C8.0335 15.25 7.25 16.0335 7.25 17H8.75ZM9 16.75C9.13807 16.75 9.25 16.8619 9.25 17H10.75C10.75 16.0335 9.9665 15.25 9 15.25V16.75ZM16.75 17C16.75 17.1381 16.6381 17.25 16.5 17.25V18.75C17.4665 18.75 18.25 17.9665 18.25 17H16.75ZM16.5 17.25C16.3619 17.25 16.25 17.1381 16.25 17H14.75C14.75 17.9665 15.5335 18.75 16.5 18.75V17.25ZM16.25 17C16.25 16.8619 16.3619 16.75 16.5 16.75V15.25C15.5335 15.25 14.75 16.0335 14.75 17H16.25ZM16.5 16.75C16.6381 16.75 16.75 16.8619 16.75 17H18.25C18.25 16.0335 17.4665 15.25 16.5 15.25V16.75ZM18.1172 10.25H6.99998V11.75H18.1172V10.25Z" fill="currentColor"/>
</svg>
