<svg fill="current" width="22" height="22" viewBox="0 0 22 22" fill="none" xmlns="http://www.w3.org/2000/svg">
<path fill-rule="evenodd" clip-rule="evenodd" d="M11 1.69999C5.8638 1.69999 1.70005 5.86374 1.70005 11C1.70005 16.1362 5.8638 20.3 11 20.3C16.1363 20.3 20.3 16.1362 20.3 11C20.3 5.86374 16.1363 1.69999 11 1.69999ZM0.300049 11C0.300049 5.09054 5.0906 0.299988 11 0.299988C16.9095 0.299988 21.7 5.09054 21.7 11C21.7 16.9094 16.9095 21.7 11 21.7C5.0906 21.7 0.300049 16.9094 0.300049 11Z" fill="currentColor"/>
<path d="M11.2491 3.96999C10.5045 4.14949 9.85089 3.49549 10.0299 2.75099C10.1144 2.40098 10.4015 2.11398 10.751 2.02998C11.4956 1.85048 12.1492 2.50449 11.9702 3.24899C11.8857 3.59849 11.5986 3.88549 11.2491 3.96999Z" fill="currentColor"/>
<path d="M13.9021 4.99416C13.1541 4.90983 12.7636 4.10003 13.1536 3.46785C13.3486 3.15101 13.7281 2.96391 14.098 3.00582C14.846 3.09014 15.2365 3.89995 14.8465 4.53212C14.6515 4.84896 14.2725 5.03607 13.9021 4.99416Z" fill="currentColor"/>
<path d="M15.687 6.94543C14.8508 6.6442 14.7553 5.56265 15.5259 5.1227C15.7615 4.98794 16.0576 4.96267 16.3131 5.05433C17.1493 5.35556 17.2448 6.43711 16.4742 6.87706C16.2386 7.01182 15.9425 7.03758 15.687 6.94543Z" fill="currentColor"/>
<path d="M4.25889 15.6709C3.76496 15.1156 4.00843 14.2506 4.73033 14.038C5.08779 13.9328 5.49374 14.051 5.7412 14.3294C6.23514 14.8846 5.99167 15.7497 5.26976 15.9622C4.91231 16.067 4.50636 15.9487 4.25889 15.6709Z" fill="currentColor"/>
<path d="M16.2589 15.6709C15.765 15.1156 16.0084 14.2506 16.7303 14.038C17.0878 13.9328 17.4937 14.051 17.7412 14.3294C18.2351 14.8846 17.9917 15.7497 17.2698 15.9622C16.9123 16.067 16.5064 15.9487 16.2589 15.6709Z" fill="currentColor"/>
<path d="M8.53222 4.84673C7.89992 5.2361 7.0904 4.84623 7.0058 4.09808C6.96425 3.72778 7.15098 3.34844 7.46788 3.15325C8.10017 2.76387 8.90969 3.15375 8.9943 3.90189C9.03585 4.2727 8.84912 4.65154 8.53222 4.84673Z" fill="currentColor"/>
<path d="M6.87743 6.47396C6.43736 7.24467 5.3555 7.14947 5.05443 6.31293C4.9626 6.05721 4.98819 5.76148 5.12267 5.52601C5.56274 4.7553 6.64459 4.8505 6.94567 5.68704C7.03749 5.94226 7.0119 6.23849 6.87743 6.47396Z" fill="currentColor"/>
<path d="M4.99794 8.92344C5.04444 9.67487 4.31352 10.2002 3.62209 9.92651C3.27563 9.78943 3.02565 9.44874 3.00216 9.07653C2.95566 8.32511 3.68658 7.79981 4.37801 8.07347C4.72447 8.21054 4.97494 8.55173 4.99794 8.92344Z" fill="currentColor"/>
<path d="M18.9979 8.92344C19.0444 9.67487 18.3135 10.2002 17.6221 9.92651C17.2756 9.78943 17.0257 9.44874 17.0022 9.07653C16.9557 8.32511 17.6866 7.79981 18.378 8.07347C18.7245 8.21054 18.9749 8.55173 18.9979 8.92344Z" fill="currentColor"/>
<path d="M4.92661 11.6219C5.20013 12.3136 4.67509 13.0444 3.92354 12.9979C3.55152 12.9749 3.2105 12.7245 3.07349 12.3781C2.79997 11.6863 3.325 10.9556 4.07655 11.0021C4.44858 11.0251 4.7896 11.2755 4.92661 11.6219Z" fill="currentColor"/>
<path d="M18.9266 11.6219C19.2001 12.3136 18.6751 13.0444 17.9235 12.9979C17.5515 12.9749 17.2105 12.7245 17.0735 12.3781C16.8 11.6863 17.325 10.9556 18.0766 11.0021C18.4486 11.0251 18.7896 11.2755 18.9266 11.6219Z" fill="currentColor"/>
<path fill-rule="evenodd" clip-rule="evenodd" d="M15.8965 9.91117C16.1698 10.1845 16.1698 10.6278 15.8965 10.9011L11.3385 15.4591C11.0651 15.7324 10.6219 15.7324 10.3485 15.4591C10.0752 15.1857 10.0752 14.7425 10.3485 14.4691L14.9065 9.91117C15.1799 9.6378 15.6231 9.6378 15.8965 9.91117Z" fill="currentColor"/>
<path d="M9.30048 15.6567C8.62945 13.654 10.9462 12.3166 12.3452 13.8989C12.4211 13.9847 12.481 14.0887 12.5177 14.1973C13.1887 16.2001 10.872 17.5374 9.47299 15.9551C9.39708 15.8693 9.33714 15.7654 9.30048 15.6567Z" fill="white"/>
<path fill-rule="evenodd" clip-rule="evenodd" d="M10.3965 14.0397C10.0148 14.26 9.73441 14.7484 9.96422 15.4343L9.30048 15.6567L9.96377 15.433C9.97085 15.454 9.98384 15.4761 9.99733 15.4914C10.4765 16.0333 11.0399 16.0348 11.4216 15.8144C11.8033 15.5941 12.0837 15.1056 11.8539 14.4197L12.5177 14.1973L11.8544 14.4211C11.8473 14.4001 11.8343 14.3779 11.8208 14.3627C11.3417 13.8208 10.7783 13.8193 10.3965 14.0397ZM12.8695 13.4352C11.9496 12.3949 10.6552 12.2738 9.69658 12.8272C8.73792 13.3806 8.19552 14.5622 8.63675 15.8791L8.6372 15.8804C8.70342 16.0768 8.8103 16.2625 8.94857 16.4188M12.8695 13.4352C13.0078 13.5915 13.1147 13.7773 13.1809 13.9736L13.1814 13.975C13.6226 15.2918 13.0802 16.4734 12.1216 17.0269C11.163 17.5803 9.86844 17.4591 8.94857 16.4188" fill="currentColor"/>
</svg>
