<svg width="20" height="20" viewBox="0 0 20 20" fill="none" xmlns="http://www.w3.org/2000/svg">
<path d="M0 2.72727C0 1.22104 1.22104 0 2.72727 0H13.0303C14.5365 0 15.7576 1.22104 15.7576 2.72727V12.1212H20V16.0606C20 18.2362 18.2362 20 16.0606 20H3.93939C1.76372 20 0 18.2362 0 16.0606V2.72727ZM15.7576 13.9394V18.1818H16.0606C17.2321 18.1818 18.1818 17.2321 18.1818 16.0606V13.9394H15.7576ZM13.9394 18.1818V2.72727C13.9394 2.2252 13.5324 1.81818 13.0303 1.81818H2.72727C2.2252 1.81818 1.81818 2.2252 1.81818 2.72727V16.0606C1.81818 17.2321 2.76788 18.1818 3.93939 18.1818H13.9394Z" fill="#C3CED2"/>
<path d="M3 5.97059C3 5.43455 3.4797 5 4.07143 5H11.9286C12.5203 5 13 5.43455 13 5.97059C13 6.50664 12.5203 6.94118 11.9286 6.94118H4.07143C3.4797 6.94118 3 6.50664 3 5.97059ZM3 10.5C3 9.96398 3.4797 9.52941 4.07143 9.52941H11.9286C12.5203 9.52941 13 9.96398 13 10.5C13 11.036 12.5203 11.4706 11.9286 11.4706H4.07143C3.4797 11.4706 3 11.036 3 10.5ZM3 15.0294C3 14.4934 3.4797 14.0588 4.07143 14.0588H7.64285C8.23456 14.0588 8.71428 14.4934 8.71428 15.0294C8.71428 15.5654 8.23456 16 7.64285 16H4.07143C3.4797 16 3 15.5654 3 15.0294Z" fill="#C3CED2"/>
</svg>
