<svg width="137" height="30" viewBox="0 0 137 30" fill="none" xmlns="http://www.w3.org/2000/svg">
<g clip-path="url(#clip0_551_306)">
<path d="M0.9375 22.9688L0.937502 7.96875L8.22914 12.1354V18.8437L14.0625 22.2188L19.8958 18.8437V12.1354L27.1875 7.96875V22.9688L14.0625 30.4688L0.9375 22.9688Z" fill="#ABBAF1"/>
<path fill-rule="evenodd" clip-rule="evenodd" d="M4.58333 10.0521L0.9375 7.96875L14.0625 0.46875L27.1875 7.96875L23.5416 10.0521V21.0937L14.0625 26.7188L4.58333 21.0937L4.58333 10.0521ZM23.1467 10.2778L19.8958 12.1354V12.0937L14.0625 8.71872L8.22914 12.0937V12.1354L4.97829 10.2778V20.863L14.0625 26.2536L23.1467 20.863V10.2778Z" fill="#0561FC"/>
</g>
<path d="M35.1732 8.04545H37.5453L41.6695 18.1156H41.8213L45.9455 8.04545H48.3175V21H46.4579V11.6257H46.3377L42.5171 20.981H40.9737L37.1531 11.6193H37.0329V21H35.1732V8.04545ZM53.6568 21.2151C53.0411 21.2151 52.4845 21.1012 51.9869 20.8735C51.4893 20.6416 51.095 20.3063 50.804 19.8677C50.5173 19.4292 50.3739 18.8915 50.3739 18.2547C50.3739 17.7065 50.4793 17.2553 50.6902 16.9011C50.901 16.5469 51.1856 16.2664 51.5441 16.0598C51.9025 15.8532 52.3031 15.6972 52.7459 15.5917C53.1887 15.4863 53.6399 15.4062 54.0996 15.3514C54.6815 15.2839 55.1538 15.2291 55.5165 15.1869C55.8791 15.1405 56.1427 15.0667 56.3072 14.9655C56.4716 14.8643 56.5539 14.6998 56.5539 14.4721V14.4278C56.5539 13.8754 56.3978 13.4474 56.0858 13.1438C55.7779 12.8402 55.3183 12.6883 54.7068 12.6883C54.0701 12.6883 53.5682 12.8296 53.2014 13.1121C52.8387 13.3905 52.5878 13.7004 52.4486 14.042L50.6712 13.6372C50.882 13.0468 51.1899 12.5703 51.5947 12.2076C52.0037 11.8407 52.4739 11.5751 53.0053 11.4106C53.5366 11.2419 54.0954 11.1576 54.6815 11.1576C55.0695 11.1576 55.4806 11.204 55.915 11.2967C56.3536 11.3853 56.7626 11.5498 57.1421 11.7901C57.5259 12.0305 57.84 12.3742 58.0846 12.8212C58.3292 13.264 58.4515 13.8396 58.4515 14.548V21H56.6045V19.6717H56.5286C56.4063 19.9162 56.2228 20.1566 55.9782 20.3928C55.7337 20.6289 55.4195 20.825 55.0357 20.981C54.652 21.1371 54.1924 21.2151 53.6568 21.2151ZM54.068 19.697C54.5909 19.697 55.0379 19.5936 55.4089 19.387C55.7843 19.1804 56.0689 18.9105 56.2629 18.5773C56.4611 18.24 56.5602 17.8794 56.5602 17.4957V16.2433C56.4927 16.3107 56.362 16.374 56.168 16.433C55.9782 16.4878 55.7611 16.5363 55.5165 16.5785C55.2719 16.6165 55.0336 16.6523 54.8017 16.686C54.5698 16.7156 54.3758 16.7409 54.2198 16.7619C53.8529 16.8083 53.5176 16.8863 53.214 16.996C52.9146 17.1056 52.6742 17.2638 52.4929 17.4704C52.3158 17.6728 52.2272 17.9427 52.2272 18.2801C52.2272 18.7481 52.4001 19.1024 52.7459 19.3427C53.0917 19.5789 53.5324 19.697 54.068 19.697ZM62.6838 15.2312V21H60.7925V11.2841H62.6079V12.8655H62.7281C62.9516 12.351 63.3016 11.9377 63.7781 11.6257C64.2588 11.3136 64.864 11.1576 65.5935 11.1576C66.2556 11.1576 66.8354 11.2967 67.333 11.5751C67.8306 11.8492 68.2165 12.2582 68.4906 12.8022C68.7647 13.3462 68.9017 14.0188 68.9017 14.82V21H67.0104V15.0477C67.0104 14.3435 66.827 13.7932 66.4601 13.3968C66.0932 12.9962 65.5893 12.7959 64.9483 12.7959C64.5097 12.7959 64.1197 12.8908 63.7781 13.0805C63.4407 13.2703 63.173 13.5486 62.9748 13.9155C62.7808 14.2781 62.6838 14.7167 62.6838 15.2312ZM74.0876 21.2151C73.4719 21.2151 72.9153 21.1012 72.4177 20.8735C71.9201 20.6416 71.5258 20.3063 71.2348 19.8677C70.9481 19.4292 70.8047 18.8915 70.8047 18.2547C70.8047 17.7065 70.9101 17.2553 71.121 16.9011C71.3318 16.5469 71.6164 16.2664 71.9749 16.0598C72.3333 15.8532 72.7339 15.6972 73.1767 15.5917C73.6195 15.4863 74.0707 15.4062 74.5304 15.3514C75.1123 15.2839 75.5846 15.2291 75.9473 15.1869C76.3099 15.1405 76.5735 15.0667 76.738 14.9655C76.9024 14.8643 76.9847 14.6998 76.9847 14.4721V14.4278C76.9847 13.8754 76.8286 13.4474 76.5166 13.1438C76.2087 12.8402 75.7491 12.6883 75.1376 12.6883C74.5009 12.6883 73.999 12.8296 73.6322 13.1121C73.2695 13.3905 73.0186 13.7004 72.8794 14.042L71.102 13.6372C71.3128 13.0468 71.6207 12.5703 72.0255 12.2076C72.4345 11.8407 72.9047 11.5751 73.4361 11.4106C73.9674 11.2419 74.5262 11.1576 75.1123 11.1576C75.5003 11.1576 75.9114 11.204 76.3458 11.2967C76.7844 11.3853 77.1934 11.5498 77.5729 11.7901C77.9567 12.0305 78.2708 12.3742 78.5154 12.8212C78.76 13.264 78.8823 13.8396 78.8823 14.548V21H77.0353V19.6717H76.9594C76.8371 19.9162 76.6536 20.1566 76.409 20.3928C76.1645 20.6289 75.8503 20.825 75.4665 20.981C75.0828 21.1371 74.6232 21.2151 74.0876 21.2151ZM74.4988 19.697C75.0217 19.697 75.4687 19.5936 75.8397 19.387C76.2151 19.1804 76.4997 18.9105 76.6937 18.5773C76.8919 18.24 76.991 17.8794 76.991 17.4957V16.2433C76.9235 16.3107 76.7928 16.374 76.5988 16.433C76.409 16.4878 76.1919 16.5363 75.9473 16.5785C75.7027 16.6165 75.4644 16.6523 75.2325 16.686C75.0006 16.7156 74.8066 16.7409 74.6506 16.7619C74.2837 16.8083 73.9484 16.8863 73.6448 16.996C73.3454 17.1056 73.105 17.2638 72.9237 17.4704C72.7466 17.6728 72.658 17.9427 72.658 18.2801C72.658 18.7481 72.8309 19.1024 73.1767 19.3427C73.5225 19.5789 73.9632 19.697 74.4988 19.697ZM85.2969 24.8459C84.5252 24.8459 83.861 24.7447 83.3044 24.5423C82.7519 24.3398 82.3007 24.0721 81.9507 23.7389C81.6007 23.4058 81.3393 23.041 81.1664 22.6446L82.792 21.9741C82.9059 22.1597 83.0577 22.3558 83.2474 22.5624C83.4414 22.7732 83.7029 22.9525 84.0318 23.1001C84.3649 23.2476 84.793 23.3214 85.3159 23.3214C86.0327 23.3214 86.6252 23.1464 87.0933 22.7964C87.5614 22.4506 87.7954 21.8982 87.7954 21.1392V19.2289H87.6753C87.5614 19.4355 87.3969 19.6653 87.1819 19.9183C86.971 20.1714 86.68 20.3906 86.309 20.5762C85.9379 20.7617 85.455 20.8545 84.8604 20.8545C84.0929 20.8545 83.4014 20.6753 82.7857 20.3169C82.1742 19.9542 81.6893 19.4207 81.3308 18.7165C80.9766 18.0081 80.7995 17.1373 80.7995 16.1041C80.7995 15.0709 80.9745 14.1854 81.3245 13.4474C81.6787 12.7094 82.1637 12.1444 82.7793 11.7522C83.395 11.3558 84.0929 11.1576 84.8731 11.1576C85.4761 11.1576 85.9632 11.2588 86.3343 11.4612C86.7054 11.6594 86.9942 11.8913 87.2008 12.157C87.4117 12.4227 87.574 12.6567 87.6879 12.8591H87.8271V11.2841H89.6804V21.2151C89.6804 22.05 89.4864 22.7353 89.0985 23.2708C88.7105 23.8064 88.1855 24.2028 87.5234 24.46C86.8656 24.7173 86.1234 24.8459 85.2969 24.8459ZM85.2779 19.2858C85.8219 19.2858 86.2815 19.1593 86.6569 18.9063C87.0364 18.649 87.3231 18.2822 87.5171 17.8056C87.7153 17.3249 87.8144 16.7493 87.8144 16.0788C87.8144 15.4252 87.7174 14.8495 87.5234 14.3519C87.3295 13.8543 87.0448 13.4664 86.6695 13.1881C86.2942 12.9055 85.8303 12.7642 85.2779 12.7642C84.7086 12.7642 84.2342 12.9118 83.8547 13.207C83.4751 13.498 83.1884 13.8944 82.9944 14.3962C82.8046 14.898 82.7098 15.4589 82.7098 16.0788C82.7098 16.7156 82.8068 17.2743 83.0007 17.755C83.1947 18.2358 83.4815 18.6111 83.861 18.881C84.2447 19.1509 84.717 19.2858 85.2779 19.2858ZM96.2263 21.1961C95.269 21.1961 94.4446 20.9916 93.753 20.5825C93.0656 20.1693 92.5343 19.5894 92.159 18.843C91.7879 18.0924 91.6024 17.2132 91.6024 16.2053C91.6024 15.2101 91.7879 14.333 92.159 13.5739C92.5343 12.8149 93.0572 12.2224 93.7277 11.7965C94.4024 11.3705 95.191 11.1576 96.0934 11.1576C96.6416 11.1576 97.173 11.2482 97.6875 11.4296C98.2019 11.6109 98.6637 11.8956 99.0727 12.2835C99.4818 12.6715 99.8044 13.1754 100.041 13.7953C100.277 14.411 100.395 15.1595 100.395 16.0408V16.7113H92.6714V15.2944H98.5414C98.5414 14.7968 98.4402 14.3562 98.2378 13.9724C98.0354 13.5845 97.7507 13.2787 97.3838 13.0552C97.0212 12.8317 96.5953 12.72 96.1061 12.72C95.5747 12.72 95.1109 12.8507 94.7145 13.1121C94.3223 13.3694 94.0187 13.7067 93.8036 14.1242C93.5928 14.5375 93.4873 14.9866 93.4873 15.4715V16.5785C93.4873 17.2279 93.6012 17.7803 93.8289 18.2358C94.0609 18.6912 94.3835 19.0391 94.7967 19.2795C95.21 19.5156 95.6928 19.6337 96.2452 19.6337C96.6037 19.6337 96.9305 19.5831 97.2257 19.4819C97.5209 19.3765 97.776 19.2204 97.9911 19.0138C98.2061 18.8072 98.3706 18.552 98.4845 18.2484L100.275 18.571C100.131 19.0981 99.874 19.5599 99.5029 19.9563C99.136 20.3485 98.6742 20.6542 98.1176 20.8735C97.5652 21.0886 96.9347 21.1961 96.2263 21.1961ZM102.315 21V11.2841H104.143V12.8275H104.244C104.421 12.3046 104.734 11.8934 105.181 11.594C105.632 11.2904 106.142 11.1386 106.711 11.1386C106.829 11.1386 106.969 11.1428 107.129 11.1513C107.293 11.1597 107.422 11.1702 107.515 11.1829V12.992C107.439 12.9709 107.304 12.9477 107.11 12.9224C106.916 12.8929 106.722 12.8781 106.528 12.8781C106.081 12.8781 105.682 12.973 105.332 13.1628C104.987 13.3483 104.712 13.6076 104.51 13.9408C104.308 14.2697 104.206 14.645 104.206 15.0667V21H102.315Z" fill="black"/>
<path d="M108.98 21V8.04545H113.837C114.833 8.04545 115.668 8.231 116.342 8.60209C117.021 8.97319 117.534 9.48344 117.879 10.1329C118.229 10.7781 118.404 11.5118 118.404 12.3341C118.404 13.1649 118.229 13.9028 117.879 14.548C117.529 15.1932 117.013 15.7014 116.33 16.0725C115.647 16.4393 114.805 16.6228 113.806 16.6228H110.586V14.6935H113.49C114.072 14.6935 114.548 14.5923 114.919 14.3899C115.29 14.1875 115.564 13.9092 115.741 13.5549C115.923 13.2007 116.013 12.7938 116.013 12.3341C116.013 11.8745 115.923 11.4696 115.741 11.1196C115.564 10.7696 115.288 10.4976 114.913 10.3036C114.542 10.1054 114.063 10.0063 113.477 10.0063H111.326V21H108.98ZM120.164 21V11.2841H122.384V12.9034H122.485C122.662 12.3426 122.966 11.9103 123.396 11.6067C123.83 11.2989 124.326 11.1449 124.882 11.1449C125.009 11.1449 125.15 11.1513 125.306 11.1639C125.466 11.1723 125.599 11.1871 125.705 11.2082V13.3146C125.608 13.2808 125.454 13.2513 125.243 13.226C125.036 13.1965 124.836 13.1817 124.642 13.1817C124.224 13.1817 123.849 13.2724 123.516 13.4537C123.187 13.6308 122.928 13.8775 122.738 14.1938C122.548 14.5101 122.453 14.8748 122.453 15.2881V21H120.164ZM130.886 21.1898C129.937 21.1898 129.115 20.981 128.419 20.5635C127.723 20.1461 127.183 19.562 126.8 18.8114C126.42 18.0608 126.23 17.1836 126.23 16.18C126.23 15.1764 126.42 14.2971 126.8 13.5423C127.183 12.7874 127.723 12.2013 128.419 11.7838C129.115 11.3663 129.937 11.1576 130.886 11.1576C131.835 11.1576 132.657 11.3663 133.353 11.7838C134.048 12.2013 134.586 12.7874 134.966 13.5423C135.349 14.2971 135.541 15.1764 135.541 16.18C135.541 17.1836 135.349 18.0608 134.966 18.8114C134.586 19.562 134.048 20.1461 133.353 20.5635C132.657 20.981 131.835 21.1898 130.886 21.1898ZM130.898 19.3554C131.413 19.3554 131.843 19.2141 132.189 18.9316C132.535 18.6448 132.792 18.2611 132.961 17.7803C133.133 17.2996 133.22 16.764 133.22 16.1737C133.22 15.5791 133.133 15.0414 132.961 14.5607C132.792 14.0757 132.535 13.6899 132.189 13.4031C131.843 13.1164 131.413 12.973 130.898 12.973C130.371 12.973 129.933 13.1164 129.583 13.4031C129.237 13.6899 128.978 14.0757 128.805 14.5607C128.636 15.0414 128.552 15.5791 128.552 16.1737C128.552 16.764 128.636 17.2996 128.805 17.7803C128.978 18.2611 129.237 18.6448 129.583 18.9316C129.933 19.2141 130.371 19.3554 130.898 19.3554Z" fill="#0561FC"/>
<defs>
<clipPath id="clip0_551_306">
<rect width="26.25" height="30" fill="white"/>
</clipPath>
</defs>
</svg>
