<svg width="17" height="4" viewBox="0 0 17 4" fill="none" xmlns="http://www.w3.org/2000/svg">
<path d="M14.8286 2H14.8393H14.8286ZM8.39999 2H8.41071H8.39999ZM1.97142 2H1.98214H1.97142ZM9.47142 2C9.47142 1.4477 8.99174 1 8.39999 1C7.80824 1 7.32857 1.4477 7.32857 2C7.32857 2.5523 7.80824 3 8.39999 3C8.99174 3 9.47142 2.5523 9.47142 2ZM15.9 2C15.9 1.4477 15.4203 1 14.8286 1C14.2368 1 13.7571 1.4477 13.7571 2C13.7571 2.5523 14.2368 3 14.8286 3C15.4203 3 15.9 2.5523 15.9 2ZM3.04285 2C3.04285 1.4477 2.56315 1 1.97142 1C1.37969 1 0.899994 1.4477 0.899994 2C0.899994 2.5523 1.37969 3 1.97142 3C2.56315 3 3.04285 2.5523 3.04285 2Z" fill="#93A3AB"/>
<path d="M14.8286 2H14.8393M8.39999 2H8.41071M1.97142 2H1.98214M9.47142 2C9.47142 1.4477 8.99174 1 8.39999 1C7.80824 1 7.32857 1.4477 7.32857 2C7.32857 2.5523 7.80824 3 8.39999 3C8.99174 3 9.47142 2.5523 9.47142 2ZM15.9 2C15.9 1.4477 15.4203 1 14.8286 1C14.2368 1 13.7571 1.4477 13.7571 2C13.7571 2.5523 14.2368 3 14.8286 3C15.4203 3 15.9 2.5523 15.9 2ZM3.04285 2C3.04285 1.4477 2.56315 1 1.97142 1C1.37969 1 0.899994 1.4477 0.899994 2C0.899994 2.5523 1.37969 3 1.97142 3C2.56315 3 3.04285 2.5523 3.04285 2Z" stroke="#93A3AB" stroke-linecap="round" stroke-linejoin="round"/>
</svg>
