<svg width="18" height="22" viewBox="0 0 18 22" fill="none" xmlns="http://www.w3.org/2000/svg">
<path d="M10 14H8V18H10V14Z" fill="#C3CED2"/>
<path d="M14 13H12V18H14V13Z" fill="#C3CED2"/>
<path d="M6 9H4V18H6V9Z" fill="#C3CED2"/>
<path d="M16.3636 2.35714H13.9091V1.57143C13.9091 1.15466 13.7367 0.754961 13.4298 0.460261C13.1229 0.165561 12.7067 0 12.2727 0H5.72727C5.29328 0 4.87707 0.165561 4.57019 0.460261C4.26331 0.754961 4.09091 1.15466 4.09091 1.57143V2.35714H1.63636C1.20237 2.35714 0.786157 2.5227 0.47928 2.8174C0.172402 3.1121 0 3.5118 0 3.92857V20.4286C0 20.8453 0.172402 21.245 0.47928 21.5397C0.786157 21.8344 1.20237 22 1.63636 22H16.3636C16.7976 22 17.2138 21.8344 17.5207 21.5397C17.8276 21.245 18 20.8453 18 20.4286V3.92857C18 3.5118 17.8276 3.1121 17.5207 2.8174C17.2138 2.5227 16.7976 2.35714 16.3636 2.35714ZM5.72727 1.57143H12.2727V4.71429H5.72727V1.57143ZM16.3636 20.4286H1.63636V3.92857H4.09091V6.28571H13.9091V3.92857H16.3636V20.4286Z" fill="#C3CED2"/>
</svg>
